<svg width="83" height="84" viewBox="0 0 83 84" fill="none" xmlns="http://www.w3.org/2000/svg">
<path d="M26.9739 60.6805L26.9739 74.3193L17 78.0476L7.02604 74.3193L7.02603 60.6806L26.9739 60.6805Z" fill="#C0F5DF" stroke="#34C88A" stroke-width="2" stroke-linejoin="round"/>
<path d="M17 56.9523L26.9739 60.6805L17 64.4088L7.02605 60.6805L17 56.9523Z" fill="#DCFEF0" stroke="#34C88A" stroke-width="2" stroke-linejoin="round"/>
<path d="M75.9739 60.6805L75.9739 74.3193L66 78.0476L56.026 74.3193L56.026 60.6806L75.9739 60.6805Z" fill="#C0F5DF" stroke="#34C88A" stroke-width="2" stroke-linejoin="round"/>
<path d="M66 56.9523L75.9739 60.6805L66 64.4088L56.0261 60.6805L66 56.9523Z" fill="#DCFEF0" stroke="#34C88A" stroke-width="2" stroke-linejoin="round"/>
<path d="M26.9739 9.68053L26.9739 23.3193L17 27.0476L7.02604 23.3193L7.02603 9.68056L26.9739 9.68053Z" fill="#C0F5DF" stroke="#34C88A" stroke-width="2" stroke-linejoin="round"/>
<path d="M17 5.9523L26.9739 9.68053L17 13.4088L7.02605 9.68053L17 5.9523Z" fill="#DCFEF0" stroke="#34C88A" stroke-width="2" stroke-linejoin="round"/>
<path d="M75.9739 9.68053L75.9739 23.3193L66 27.0476L56.026 23.3193L56.026 9.68056L75.9739 9.68053Z" fill="#C0F5DF" stroke="#34C88A" stroke-width="2" stroke-linejoin="round"/>
<path d="M66 5.9523L75.9739 9.68053L66 13.4088L56.0261 9.68053L66 5.9523Z" fill="#DCFEF0" stroke="#34C88A" stroke-width="2" stroke-linejoin="round"/>
<path d="M29.0338 31.9662C37.6779 29.8051 42 26.5635 42 26.5635C42 26.5635 46.322 29.8051 54.9662 31.9662C54.9662 53.5765 42 56.818 42 56.818C42 56.818 29.0338 53.5764 29.0338 31.9662Z" stroke="#163F59" stroke-width="2" stroke-linecap="round" stroke-linejoin="round"/>
<path d="M33.7575 35.2424C39.2525 33.8687 41.9999 31.808 41.9999 31.808C41.9999 31.808 44.7474 33.8686 50.2424 35.2424C50.2424 48.9798 41.9999 51.0405 41.9999 51.0405C41.9999 51.0405 33.7575 48.9798 33.7575 35.2424Z" fill="#34C88A"/>
<path fill-rule="evenodd" clip-rule="evenodd" d="M31 68C31 67.4477 31.4477 67 32 67H51C51.5523 67 52 67.4477 52 68C52 68.5523 51.5523 69 51 69H32C31.4477 69 31 68.5523 31 68Z" fill="#34C88A"/>
<path fill-rule="evenodd" clip-rule="evenodd" d="M31 17C31 16.4477 31.4477 16 32 16H51C51.5523 16 52 16.4477 52 17C52 17.5523 51.5523 18 51 18H32C31.4477 18 31 17.5523 31 17Z" fill="#34C88A"/>
<path fill-rule="evenodd" clip-rule="evenodd" d="M66 52C65.4477 52 65 51.5523 65 51L65 33C65 32.4477 65.4477 32 66 32C66.5523 32 67 32.4477 67 33L67 51C67 51.5523 66.5523 52 66 52Z" fill="#34C88A"/>
<path fill-rule="evenodd" clip-rule="evenodd" d="M17 52C16.4477 52 16 51.5523 16 51L16 33C16 32.4477 16.4477 32 17 32C17.5523 32 18 32.4477 18 33L18 51C18 51.5523 17.5523 52 17 52Z" fill="#34C88A"/>
</svg>
