<svg width="79" height="82" viewBox="0 0 79 82" fill="none" xmlns="http://www.w3.org/2000/svg">
<path d="M26.974 58.6805L26.974 72.3193L17 76.0476L7.02607 72.3193L7.02606 58.6806L26.974 58.6805Z" fill="#C0F5DF" stroke="#34C88A" stroke-width="2" stroke-linejoin="round"/>
<path d="M17 54.9523L26.974 58.6805L17 62.4088L7.02608 58.6805L17 54.9523Z" fill="#DCFEF0" stroke="#34C88A" stroke-width="2" stroke-linejoin="round"/>
<path d="M71.974 58.6805L71.974 72.3193L62 76.0476L52.0261 72.3193L52.0261 58.6806L71.974 58.6805Z" fill="#C0F5DF" stroke="#34C88A" stroke-width="2" stroke-linejoin="round"/>
<path d="M62 54.9523L71.974 58.6805L62 62.4088L52.0261 58.6805L62 54.9523Z" fill="#DCFEF0" stroke="#34C88A" stroke-width="2" stroke-linejoin="round"/>
<path d="M55.2713 15.6062L55.2713 37.5936L38.9014 43.6039L22.5316 37.5936L22.5316 15.6062L55.2713 15.6062Z" fill="#C0F5DF" stroke="#34C88A" stroke-width="2" stroke-linejoin="round"/>
<path d="M38.9015 9.59584L55.2713 15.6062L38.9015 21.6165L22.5316 15.6062L38.9015 9.59584Z" fill="#DCFEF0" stroke="#34C88A" stroke-width="2" stroke-linejoin="round"/>
<path fill-rule="evenodd" clip-rule="evenodd" d="M39.925 55.6217L39.925 46.5H37.8779L37.8779 55.6217L29.5056 58.6957L30.2413 60.517L38.9015 57.3373L47.5616 60.517L48.2974 58.6957L39.925 55.6217Z" fill="#163F59"/>
</svg>
