<svg width="79" height="87" viewBox="0 0 79 87" fill="none" xmlns="http://www.w3.org/2000/svg">
<rect width="79" height="86.4179" fill="black" fill-opacity="0" transform="translate(0 0.582153)"/>
<path fill-rule="evenodd" clip-rule="evenodd" d="M52.1112 18.805C52.3643 18.3141 52.9674 18.1214 53.4583 18.3745C63.2802 23.4385 70 33.6837 70 45.5C70 57.1078 63.5151 67.1996 53.9753 72.3526C53.4893 72.6151 52.8826 72.434 52.6202 71.948C52.3577 71.4621 52.5388 70.8554 53.0247 70.5929C61.944 65.7751 68 56.344 68 45.5C68 34.4613 61.7244 24.8866 52.5417 20.1521C52.0509 19.899 51.8581 19.2959 52.1112 18.805ZM26.8888 18.805C27.1419 19.2959 26.9491 19.899 26.4583 20.1521C17.2756 24.8866 11 34.4613 11 45.5C11 56.344 17.056 65.7751 25.9753 70.5929C26.4612 70.8554 26.6423 71.4621 26.3798 71.948C26.1174 72.434 25.5107 72.6151 25.0247 72.3526C15.4849 67.1996 9 57.1078 9 45.5C9 33.6837 15.7198 23.4385 25.5417 18.3745C26.0326 18.1214 26.6357 18.3141 26.8888 18.805Z" fill="#163F59"/>
<path d="M39.2014 2L48.8213 17.9816L39.2014 33.9632L29.5814 17.9816L39.2014 2Z" fill="#DCFEF0" stroke="#34C88A" stroke-width="2" stroke-linecap="round" stroke-linejoin="round"/>
<path fill-rule="evenodd" clip-rule="evenodd" d="M39.2014 0.997468C39.5504 0.997468 39.874 1.18086 40.0547 1.48104L49.6747 17.4626C49.8667 17.7817 49.8667 18.1816 49.6747 18.5007L40.0547 34.4823C39.874 34.7825 39.5504 34.9659 39.2014 34.9659C38.8523 34.9659 38.5287 34.7825 38.348 34.4823L28.7281 18.5007C28.536 18.1816 28.536 17.7817 28.7281 17.4626L38.348 1.48104C38.5287 1.18086 38.8523 0.997468 39.2014 0.997468ZM39.2014 3.93675L30.7472 17.9817L39.2014 32.0266L47.6555 17.9817L39.2014 3.93675Z" fill="#34C88A"/>
<path d="M39.2014 13.0454L48.8213 17.9816L39.2014 23.4437L29.5814 17.9816L39.2014 13.0454Z" fill="#DCFEF0" stroke="#34C88A" stroke-width="2" stroke-linecap="round" stroke-linejoin="round"/>
<path fill-rule="evenodd" clip-rule="evenodd" d="M49.8185 17.9605C49.8262 18.3295 49.6316 18.673 49.3118 18.8546L39.6919 24.3167C39.3875 24.4895 39.0152 24.4895 38.7108 24.3167L29.0909 18.8546C28.7711 18.673 28.5765 18.3295 28.5842 17.9605C28.592 17.5914 28.8009 17.2565 29.1279 17.0886L38.7479 12.1525C39.0327 12.0063 39.37 12.0063 39.6548 12.1525L49.2748 17.0886C49.6019 17.2565 49.8107 17.5914 49.8185 17.9605ZM39.2014 14.1711L31.6881 18.0263L39.2014 22.2923L46.7146 18.0263L39.2014 14.1711Z" fill="#34C88A"/>
<path d="M19 45C19 49.9706 14.9706 54 10 54C5.02944 54 1 49.9706 1 45C1 40.0294 5.02944 36 10 36C14.9706 36 19 40.0294 19 45Z" fill="#C0F5DF" stroke="#34C88A" stroke-width="2"/>
<mask id="path-7-inside-1" fill="white">
<path fill-rule="evenodd" clip-rule="evenodd" d="M10 53C14.4183 53 18 49.4183 18 45C18 40.5817 14.4183 37 10 37C5.58172 37 2 40.5817 2 45C2 49.4183 5.58172 53 10 53ZM10 55C15.5228 55 20 50.5228 20 45C20 39.4772 15.5228 35 10 35C4.47715 35 0 39.4772 0 45C0 50.5228 4.47715 55 10 55Z"/>
</mask>
<path fill-rule="evenodd" clip-rule="evenodd" d="M10 53C14.4183 53 18 49.4183 18 45C18 40.5817 14.4183 37 10 37C5.58172 37 2 40.5817 2 45C2 49.4183 5.58172 53 10 53ZM10 55C15.5228 55 20 50.5228 20 45C20 39.4772 15.5228 35 10 35C4.47715 35 0 39.4772 0 45C0 50.5228 4.47715 55 10 55Z" fill="#C0F5DF"/>
<path d="M16 45C16 48.3137 13.3137 51 10 51V55C15.5228 55 20 50.5228 20 45H16ZM10 39C13.3137 39 16 41.6863 16 45H20C20 39.4772 15.5228 35 10 35V39ZM4 45C4 41.6863 6.68629 39 10 39V35C4.47715 35 0 39.4772 0 45H4ZM10 51C6.68629 51 4 48.3137 4 45H0C0 50.5228 4.47715 55 10 55V51ZM18 45C18 49.4183 14.4183 53 10 53V57C16.6274 57 22 51.6274 22 45H18ZM10 37C14.4183 37 18 40.5817 18 45H22C22 38.3726 16.6274 33 10 33V37ZM2 45C2 40.5817 5.58172 37 10 37V33C3.37258 33 -2 38.3726 -2 45H2ZM10 53C5.58172 53 2 49.4183 2 45H-2C-2 51.6274 3.37258 57 10 57V53Z" fill="#34C88A" mask="url(#path-7-inside-1)"/>
<path d="M78 43C78 47.9706 73.9706 52 69 52C64.0294 52 60 47.9706 60 43C60 38.0294 64.0294 34 69 34C73.9706 34 78 38.0294 78 43Z" fill="#C0F5DF" stroke="#34C88A" stroke-width="2"/>
<mask id="path-10-inside-2" fill="white">
<path fill-rule="evenodd" clip-rule="evenodd" d="M69 51C73.4183 51 77 47.4183 77 43C77 38.5817 73.4183 35 69 35C64.5817 35 61 38.5817 61 43C61 47.4183 64.5817 51 69 51ZM69 53C74.5228 53 79 48.5228 79 43C79 37.4772 74.5228 33 69 33C63.4772 33 59 37.4772 59 43C59 48.5228 63.4772 53 69 53Z"/>
</mask>
<path fill-rule="evenodd" clip-rule="evenodd" d="M69 51C73.4183 51 77 47.4183 77 43C77 38.5817 73.4183 35 69 35C64.5817 35 61 38.5817 61 43C61 47.4183 64.5817 51 69 51ZM69 53C74.5228 53 79 48.5228 79 43C79 37.4772 74.5228 33 69 33C63.4772 33 59 37.4772 59 43C59 48.5228 63.4772 53 69 53Z" fill="#C0F5DF"/>
<path d="M75 43C75 46.3137 72.3137 49 69 49V53C74.5228 53 79 48.5228 79 43H75ZM69 37C72.3137 37 75 39.6863 75 43H79C79 37.4772 74.5228 33 69 33V37ZM63 43C63 39.6863 65.6863 37 69 37V33C63.4772 33 59 37.4772 59 43H63ZM69 49C65.6863 49 63 46.3137 63 43H59C59 48.5228 63.4772 53 69 53V49ZM77 43C77 47.4183 73.4183 51 69 51V55C75.6274 55 81 49.6274 81 43H77ZM69 35C73.4183 35 77 38.5817 77 43H81C81 36.3726 75.6274 31 69 31V35ZM61 43C61 38.5817 64.5817 35 69 35V31C62.3726 31 57 36.3726 57 43H61ZM69 51C64.5817 51 61 47.4183 61 43H57C57 49.6274 62.3726 55 69 55V51Z" fill="#34C88A" mask="url(#path-10-inside-2)"/>
<path d="M39.5001 73.3448C33.9082 73.3448 29.3751 78.3184 29.3751 84.4536C37.1409 87.8875 41.5779 87.8101 49.6251 84.4536C49.6251 78.3184 45.0919 73.3448 39.5001 73.3448Z" fill="#C0F5DF"/>
<mask id="path-13-inside-3" fill="white">
<path fill-rule="evenodd" clip-rule="evenodd" d="M39.5 70.931C32.6072 70.931 27 76.5861 27 83.5862C27 84.1385 26.5523 84.5862 26 84.5862C25.4477 84.5862 25 84.1385 25 83.5862C25 75.5032 31.4811 68.931 39.5 68.931C47.5189 68.931 54 75.5032 54 83.5862C54 84.1385 53.5523 84.5862 53 84.5862C52.4477 84.5862 52 84.1385 52 83.5862C52 76.5861 46.3928 70.931 39.5 70.931Z"/>
</mask>
<path fill-rule="evenodd" clip-rule="evenodd" d="M39.5 70.931C32.6072 70.931 27 76.5861 27 83.5862C27 84.1385 26.5523 84.5862 26 84.5862C25.4477 84.5862 25 84.1385 25 83.5862C25 75.5032 31.4811 68.931 39.5 68.931C47.5189 68.931 54 75.5032 54 83.5862C54 84.1385 53.5523 84.5862 53 84.5862C52.4477 84.5862 52 84.1385 52 83.5862C52 76.5861 46.3928 70.931 39.5 70.931Z" fill="#34C88A"/>
<path d="M29 83.5862C29 77.6696 33.7327 72.931 39.5 72.931V68.931C31.4816 68.931 25 75.5027 25 83.5862H29ZM26 86.5862C27.6569 86.5862 29 85.2431 29 83.5862H25C25 83.0339 25.4477 82.5862 26 82.5862V86.5862ZM23 83.5862C23 85.2431 24.3431 86.5862 26 86.5862V82.5862C26.5523 82.5862 27 83.0339 27 83.5862H23ZM39.5 66.931C30.3546 66.931 23 74.4207 23 83.5862H27C27 76.5857 32.6076 70.931 39.5 70.931V66.931ZM56 83.5862C56 74.4207 48.6454 66.931 39.5 66.931V70.931C46.3924 70.931 52 76.5857 52 83.5862H56ZM53 86.5862C54.6569 86.5862 56 85.2431 56 83.5862H52C52 83.0339 52.4477 82.5862 53 82.5862V86.5862ZM50 83.5862C50 85.2431 51.3431 86.5862 53 86.5862V82.5862C53.5523 82.5862 54 83.0339 54 83.5862H50ZM39.5 72.931C45.2673 72.931 50 77.6696 50 83.5862H54C54 75.5027 47.5184 68.931 39.5 68.931V72.931Z" fill="#34C88A" mask="url(#path-13-inside-3)"/>
<path d="M46.3751 62.9655C46.3751 66.8233 43.2863 69.9311 39.5001 69.9311C35.7138 69.9311 32.6251 66.8233 32.6251 62.9655C32.6251 59.1078 35.7138 56 39.5001 56C43.2863 56 46.3751 59.1078 46.3751 62.9655Z" fill="white" stroke="#163F59" stroke-width="2"/>
<mask id="path-16-inside-4" fill="white">
<path fill-rule="evenodd" clip-rule="evenodd" d="M39.5001 68.9311C42.7232 68.9311 45.3751 66.2818 45.3751 62.9655C45.3751 59.6492 42.7232 57 39.5001 57C36.2769 57 33.6251 59.6492 33.6251 62.9655C33.6251 66.2818 36.2769 68.9311 39.5001 68.9311ZM39.5001 70.9311C43.8493 70.9311 47.3751 67.3648 47.3751 62.9655C47.3751 58.5663 43.8493 55 39.5001 55C35.1508 55 31.6251 58.5663 31.6251 62.9655C31.6251 67.3648 35.1508 70.9311 39.5001 70.9311Z"/>
</mask>
<path fill-rule="evenodd" clip-rule="evenodd" d="M39.5001 68.9311C42.7232 68.9311 45.3751 66.2818 45.3751 62.9655C45.3751 59.6492 42.7232 57 39.5001 57C36.2769 57 33.6251 59.6492 33.6251 62.9655C33.6251 66.2818 36.2769 68.9311 39.5001 68.9311ZM39.5001 70.9311C43.8493 70.9311 47.3751 67.3648 47.3751 62.9655C47.3751 58.5663 43.8493 55 39.5001 55C35.1508 55 31.6251 58.5663 31.6251 62.9655C31.6251 67.3648 35.1508 70.9311 39.5001 70.9311Z" fill="white"/>
<path d="M43.3751 62.9655C43.3751 65.1967 41.5994 66.9311 39.5001 66.9311V70.9311C43.8471 70.9311 47.3751 67.367 47.3751 62.9655H43.3751ZM39.5001 59C41.5994 59 43.3751 60.7344 43.3751 62.9655H47.3751C47.3751 58.5641 43.8471 55 39.5001 55V59ZM35.6251 62.9655C35.6251 60.7344 37.4008 59 39.5001 59V55C35.153 55 31.6251 58.5641 31.6251 62.9655H35.6251ZM39.5001 66.9311C37.4008 66.9311 35.6251 65.1967 35.6251 62.9655H31.6251C31.6251 67.367 35.153 70.9311 39.5001 70.9311V66.9311ZM45.3751 62.9655C45.3751 66.2818 42.7232 68.9311 39.5001 68.9311V72.9311C44.9754 72.9311 49.3751 68.4477 49.3751 62.9655H45.3751ZM39.5001 57C42.7232 57 45.3751 59.6492 45.3751 62.9655H49.3751C49.3751 57.4833 44.9754 53 39.5001 53V57ZM33.6251 62.9655C33.6251 59.6492 36.2769 57 39.5001 57V53C34.0248 53 29.6251 57.4833 29.6251 62.9655H33.6251ZM39.5001 68.9311C36.2769 68.9311 33.6251 66.2818 33.6251 62.9655H29.6251C29.6251 68.4477 34.0248 72.9311 39.5001 72.9311V68.9311Z" fill="#163F59" mask="url(#path-16-inside-4)"/>
</svg>
