<svg width="100" height="63" viewBox="0 0 100 63" fill="none" xmlns="http://www.w3.org/2000/svg">
<rect width="99.9999" height="63.0001" fill="black" fill-opacity="0"/>
<rect width="55.8028" height="54.58" fill="black" fill-opacity="0" transform="translate(44.1971 8.42004)"/>
<path d="M88.4684 25.4064L88.4684 47.3937L72.0986 53.4041L55.7287 47.3937L55.7287 25.4064L88.4684 25.4064Z" fill="#C0F5DF" stroke="#34C88A" stroke-width="2" stroke-linejoin="round"/>
<path d="M72.0986 19.396L88.4684 25.4064L72.0986 31.4167L55.7287 25.4064L72.0986 19.396Z" fill="#DCFEF0" stroke="#34C88A" stroke-width="2" stroke-linejoin="round"/>
<path fill-rule="evenodd" clip-rule="evenodd" d="M89.492 25.4064C89.492 25.81 89.2314 26.172 88.8363 26.317L72.4664 32.3274C72.2297 32.4143 71.9675 32.4143 71.7307 32.3274L55.3609 26.317C54.9658 26.172 54.7051 25.81 54.7051 25.4064C54.7051 25.0028 54.9658 24.6408 55.3609 24.4957L71.7307 18.4854C71.9675 18.3985 72.2297 18.3985 72.4664 18.4854L88.8363 24.4957C89.2314 24.6408 89.492 25.0028 89.492 25.4064ZM72.0986 20.4417L58.5768 25.4064L72.0986 30.371L85.6203 25.4064L72.0986 20.4417Z" fill="#34C88A"/>
<rect width="55.8028" height="54.58" fill="black" fill-opacity="0" transform="translate(6.10352e-05 8.42017)"/>
<path d="M44.2713 25.4065L44.2713 47.3939L27.9015 53.4042L11.5316 47.3939L11.5316 25.4065L44.2713 25.4065Z" fill="#C0F5DF" stroke="#34C88A" stroke-width="2" stroke-linejoin="round"/>
<path d="M27.9015 19.3961L44.2713 25.4065L27.9015 31.4168L11.5317 25.4065L27.9015 19.3961Z" fill="#DCFEF0" stroke="#34C88A" stroke-width="2" stroke-linejoin="round"/>
<path fill-rule="evenodd" clip-rule="evenodd" d="M45.2949 25.4065C45.2949 25.8101 45.0343 26.1721 44.6392 26.3172L28.2694 32.3275C28.0326 32.4144 27.7704 32.4144 27.5336 32.3275L11.1638 26.3172C10.7687 26.1721 10.5081 25.8101 10.5081 25.4065C10.5081 25.0029 10.7687 24.6409 11.1638 24.4959L27.5336 18.4855C27.7704 18.3986 28.0326 18.3986 28.2694 18.4855L44.6392 24.4959C45.0343 24.6409 45.2949 25.0029 45.2949 25.4065ZM27.9015 20.4419L14.3798 25.4065L27.9015 30.3712L41.4232 25.4065L27.9015 20.4419Z" fill="#34C88A"/>
<path fill-rule="evenodd" clip-rule="evenodd" d="M50.229 2C38.7709 2 29.4822 11.2886 29.4822 22.7467V24.8818C29.4822 25.4341 29.0345 25.8818 28.4822 25.8818C27.93 25.8818 27.4822 25.4341 27.4822 24.8818V22.7467C27.4822 10.184 37.6663 0 50.229 0C62.7916 0 72.9757 10.184 72.9757 22.7467V24.8818C72.9757 25.4341 72.528 25.8818 71.9757 25.8818C71.4234 25.8818 70.9757 25.4341 70.9757 24.8818V22.7467C70.9757 11.2886 61.6871 2 50.229 2Z" fill="#163F59"/>
<path fill-rule="evenodd" clip-rule="evenodd" d="M36.5084 38.5073C36.7993 38.0379 37.4157 37.8931 37.8852 38.184C41.3071 40.3046 45.5801 41.5721 50.2289 41.5721C54.8777 41.5721 59.1507 40.3046 62.5727 38.184C63.0422 37.8931 63.6585 38.0379 63.9495 38.5073C64.2404 38.9768 64.0956 39.5932 63.6262 39.8841C59.8779 42.2068 55.2382 43.5721 50.2289 43.5721C45.2197 43.5721 40.5799 42.2068 36.8317 39.8841C36.3622 39.5932 36.2175 38.9768 36.5084 38.5073Z" fill="#34C88A"/>
</svg>
