<svg width="69" height="69" viewBox="0 0 69 69" fill="none" xmlns="http://www.w3.org/2000/svg">
<rect width="69" height="69" fill="black" fill-opacity="0"/>
<path fill-rule="evenodd" clip-rule="evenodd" d="M67 7C51.536 7 39 19.536 39 35C39 50.464 51.536 63 67 63V65C50.4315 65 37 51.5685 37 35C37 18.4315 50.4315 5 67 5V7Z" fill="#34C88A"/>
<path fill-rule="evenodd" clip-rule="evenodd" d="M31 35C31 19.536 18.464 7 3 7V5C19.5685 5 33 18.4315 33 35H31Z" fill="#34C88A"/>
<path fill-rule="evenodd" clip-rule="evenodd" d="M7 51C6.44772 51 6 50.5523 6 50L6 19C6 18.4477 6.44772 18 7 18C7.55228 18 8 18.4477 8 19L8 50C8 50.5523 7.55228 51 7 51Z" fill="#34C88A"/>
<path d="M68 7C68 10.3137 65.3137 13 62 13C58.6863 13 56 10.3137 56 7C56 3.68629 58.6863 1 62 1C65.3137 1 68 3.68629 68 7Z" fill="white" stroke="#163F59" stroke-width="2"/>
<mask id="path-5-inside-1" fill="white">
<path fill-rule="evenodd" clip-rule="evenodd" d="M62 12C64.7614 12 67 9.76142 67 7C67 4.23858 64.7614 2 62 2C59.2386 2 57 4.23858 57 7C57 9.76142 59.2386 12 62 12ZM62 14C65.866 14 69 10.866 69 7C69 3.13401 65.866 0 62 0C58.134 0 55 3.13401 55 7C55 10.866 58.134 14 62 14Z"/>
</mask>
<path fill-rule="evenodd" clip-rule="evenodd" d="M62 12C64.7614 12 67 9.76142 67 7C67 4.23858 64.7614 2 62 2C59.2386 2 57 4.23858 57 7C57 9.76142 59.2386 12 62 12ZM62 14C65.866 14 69 10.866 69 7C69 3.13401 65.866 0 62 0C58.134 0 55 3.13401 55 7C55 10.866 58.134 14 62 14Z" fill="white"/>
<path d="M65 7C65 8.65685 63.6569 10 62 10V14C65.866 14 69 10.866 69 7H65ZM62 4C63.6569 4 65 5.34315 65 7H69C69 3.13401 65.866 0 62 0V4ZM59 7C59 5.34315 60.3431 4 62 4V0C58.134 0 55 3.13401 55 7H59ZM62 10C60.3431 10 59 8.65685 59 7H55C55 10.866 58.134 14 62 14V10ZM67 7C67 9.76142 64.7614 12 62 12V16C66.9706 16 71 11.9706 71 7H67ZM62 2C64.7614 2 67 4.23858 67 7H71C71 2.02944 66.9706 -2 62 -2V2ZM57 7C57 4.23858 59.2386 2 62 2V-2C57.0294 -2 53 2.02944 53 7H57ZM62 12C59.2386 12 57 9.76142 57 7H53C53 11.9706 57.0294 16 62 16V12Z" fill="#163F59" mask="url(#path-5-inside-1)"/>
<path d="M68 62C68 65.3137 65.3137 68 62 68C58.6863 68 56 65.3137 56 62C56 58.6863 58.6863 56 62 56C65.3137 56 68 58.6863 68 62Z" fill="white" stroke="#163F59" stroke-width="2"/>
<mask id="path-8-inside-2" fill="white">
<path fill-rule="evenodd" clip-rule="evenodd" d="M62 67C64.7614 67 67 64.7614 67 62C67 59.2386 64.7614 57 62 57C59.2386 57 57 59.2386 57 62C57 64.7614 59.2386 67 62 67ZM62 69C65.866 69 69 65.866 69 62C69 58.134 65.866 55 62 55C58.134 55 55 58.134 55 62C55 65.866 58.134 69 62 69Z"/>
</mask>
<path fill-rule="evenodd" clip-rule="evenodd" d="M62 67C64.7614 67 67 64.7614 67 62C67 59.2386 64.7614 57 62 57C59.2386 57 57 59.2386 57 62C57 64.7614 59.2386 67 62 67ZM62 69C65.866 69 69 65.866 69 62C69 58.134 65.866 55 62 55C58.134 55 55 58.134 55 62C55 65.866 58.134 69 62 69Z" fill="white"/>
<path d="M65 62C65 63.6569 63.6569 65 62 65V69C65.866 69 69 65.866 69 62H65ZM62 59C63.6569 59 65 60.3431 65 62H69C69 58.134 65.866 55 62 55V59ZM59 62C59 60.3431 60.3431 59 62 59V55C58.134 55 55 58.134 55 62H59ZM62 65C60.3431 65 59 63.6569 59 62H55C55 65.866 58.134 69 62 69V65ZM67 62C67 64.7614 64.7614 67 62 67V71C66.9706 71 71 66.9706 71 62H67ZM62 57C64.7614 57 67 59.2386 67 62H71C71 57.0294 66.9706 53 62 53V57ZM57 62C57 59.2386 59.2386 57 62 57V53C57.0294 53 53 57.0294 53 62H57ZM62 67C59.2386 67 57 64.7614 57 62H53C53 66.9706 57.0294 71 62 71V67Z" fill="#163F59" mask="url(#path-8-inside-2)"/>
<path d="M13 7C13 10.3137 10.3137 13 7 13C3.68629 13 1 10.3137 1 7C1 3.68629 3.68629 1 7 1C10.3137 1 13 3.68629 13 7Z" fill="white" stroke="#163F59" stroke-width="2"/>
<mask id="path-11-inside-3" fill="white">
<path fill-rule="evenodd" clip-rule="evenodd" d="M7 12C9.76142 12 12 9.76142 12 7C12 4.23858 9.76142 2 7 2C4.23858 2 2 4.23858 2 7C2 9.76142 4.23858 12 7 12ZM7 14C10.866 14 14 10.866 14 7C14 3.13401 10.866 0 7 0C3.13401 0 0 3.13401 0 7C0 10.866 3.13401 14 7 14Z"/>
</mask>
<path fill-rule="evenodd" clip-rule="evenodd" d="M7 12C9.76142 12 12 9.76142 12 7C12 4.23858 9.76142 2 7 2C4.23858 2 2 4.23858 2 7C2 9.76142 4.23858 12 7 12ZM7 14C10.866 14 14 10.866 14 7C14 3.13401 10.866 0 7 0C3.13401 0 0 3.13401 0 7C0 10.866 3.13401 14 7 14Z" fill="white"/>
<path d="M10 7C10 8.65685 8.65685 10 7 10V14C10.866 14 14 10.866 14 7H10ZM7 4C8.65685 4 10 5.34315 10 7H14C14 3.13401 10.866 0 7 0V4ZM4 7C4 5.34315 5.34315 4 7 4V0C3.13401 0 0 3.13401 0 7H4ZM7 10C5.34315 10 4 8.65685 4 7H0C0 10.866 3.13401 14 7 14V10ZM12 7C12 9.76142 9.76142 12 7 12V16C11.9706 16 16 11.9706 16 7H12ZM7 2C9.76142 2 12 4.23858 12 7H16C16 2.02944 11.9706 -2 7 -2V2ZM2 7C2 4.23858 4.23858 2 7 2V-2C2.02944 -2 -2 2.02944 -2 7H2ZM7 12C4.23858 12 2 9.76142 2 7H-2C-2 11.9706 2.02944 16 7 16V12Z" fill="#163F59" mask="url(#path-11-inside-3)"/>
<path d="M13 62C13 65.3137 10.3137 68 7 68C3.68629 68 1 65.3137 1 62C1 58.6863 3.68629 56 7 56C10.3137 56 13 58.6863 13 62Z" fill="white" stroke="#163F59" stroke-width="2"/>
<mask id="path-14-inside-4" fill="white">
<path fill-rule="evenodd" clip-rule="evenodd" d="M7 67C9.76142 67 12 64.7614 12 62C12 59.2386 9.76142 57 7 57C4.23858 57 2 59.2386 2 62C2 64.7614 4.23858 67 7 67ZM7 69C10.866 69 14 65.866 14 62C14 58.134 10.866 55 7 55C3.13401 55 0 58.134 0 62C0 65.866 3.13401 69 7 69Z"/>
</mask>
<path fill-rule="evenodd" clip-rule="evenodd" d="M7 67C9.76142 67 12 64.7614 12 62C12 59.2386 9.76142 57 7 57C4.23858 57 2 59.2386 2 62C2 64.7614 4.23858 67 7 67ZM7 69C10.866 69 14 65.866 14 62C14 58.134 10.866 55 7 55C3.13401 55 0 58.134 0 62C0 65.866 3.13401 69 7 69Z" fill="white"/>
<path d="M10 62C10 63.6569 8.65685 65 7 65V69C10.866 69 14 65.866 14 62H10ZM7 59C8.65685 59 10 60.3431 10 62H14C14 58.134 10.866 55 7 55V59ZM4 62C4 60.3431 5.34315 59 7 59V55C3.13401 55 0 58.134 0 62H4ZM7 65C5.34315 65 4 63.6569 4 62H0C0 65.866 3.13401 69 7 69V65ZM12 62C12 64.7614 9.76142 67 7 67V71C11.9706 71 16 66.9706 16 62H12ZM7 57C9.76142 57 12 59.2386 12 62H16C16 57.0294 11.9706 53 7 53V57ZM2 62C2 59.2386 4.23858 57 7 57V53C2.02944 53 -2 57.0294 -2 62H2ZM7 67C4.23858 67 2 64.7614 2 62H-2C-2 66.9706 2.02944 71 7 71V67Z" fill="#163F59" mask="url(#path-14-inside-4)"/>
<path d="M47 35C47 41.6274 41.6274 47 35 47C28.3726 47 23 41.6274 23 35C23 28.3726 28.3726 23 35 23C41.6274 23 47 28.3726 47 35Z" fill="#C0F5DF" stroke="#34C88A" stroke-width="2"/>
<mask id="path-17-inside-5" fill="white">
<path fill-rule="evenodd" clip-rule="evenodd" d="M35 46C41.0751 46 46 41.0751 46 35C46 28.9249 41.0751 24 35 24C28.9249 24 24 28.9249 24 35C24 41.0751 28.9249 46 35 46ZM35 48C42.1797 48 48 42.1797 48 35C48 27.8203 42.1797 22 35 22C27.8203 22 22 27.8203 22 35C22 42.1797 27.8203 48 35 48Z"/>
</mask>
<path fill-rule="evenodd" clip-rule="evenodd" d="M35 46C41.0751 46 46 41.0751 46 35C46 28.9249 41.0751 24 35 24C28.9249 24 24 28.9249 24 35C24 41.0751 28.9249 46 35 46ZM35 48C42.1797 48 48 42.1797 48 35C48 27.8203 42.1797 22 35 22C27.8203 22 22 27.8203 22 35C22 42.1797 27.8203 48 35 48Z" fill="#C0F5DF"/>
<path d="M44 35C44 39.9706 39.9706 44 35 44V48C42.1797 48 48 42.1797 48 35H44ZM35 26C39.9706 26 44 30.0294 44 35H48C48 27.8203 42.1797 22 35 22V26ZM26 35C26 30.0294 30.0294 26 35 26V22C27.8203 22 22 27.8203 22 35H26ZM35 44C30.0294 44 26 39.9706 26 35H22C22 42.1797 27.8203 48 35 48V44ZM46 35C46 41.0751 41.0751 46 35 46V50C43.2843 50 50 43.2843 50 35H46ZM35 24C41.0751 24 46 28.9249 46 35H50C50 26.7157 43.2843 20 35 20V24ZM24 35C24 28.9249 28.9249 24 35 24V20C26.7157 20 20 26.7157 20 35H24ZM35 46C28.9249 46 24 41.0751 24 35H20C20 43.2843 26.7157 50 35 50V46Z" fill="#34C88A" mask="url(#path-17-inside-5)"/>
</svg>
