<svg width="407" height="360" viewBox="0 0 407 360" fill="none" xmlns="http://www.w3.org/2000/svg">
<rect width="407" height="360" fill="black" fill-opacity="0"/>
<path d="M194.418 147.933L194.418 72M194.418 147.933L241.312 167.34M194.418 147.933L129.5 172" stroke="#3DD696" stroke-width="2" stroke-linecap="round" stroke-linejoin="round"/>
<rect width="114" height="108" fill="black" fill-opacity="0" transform="translate(138)"/>
<path d="M228.442 31.6819L228.442 76.3181L195 88.5196L161.558 76.3181L161.558 31.682L195 44.0256L228.442 31.6819Z" fill="#34C88A"/>
<path d="M195 19.4805L228.442 31.6819L195 44.0256L161.558 31.6819L195 19.4805Z" fill="#DCFEF0"/>
<path d="M280.316 171.833L280.316 258.22L198 289" stroke="#3DD696" stroke-width="2" stroke-linecap="round" stroke-linejoin="round"/>
<rect width="252.493" height="238.053" fill="black" fill-opacity="0" transform="translate(154.507 44.5867)"/>
<path d="M354.823 114.42L354.823 212.807L280.753 239.701L206.684 212.807L206.684 114.42L280.753 141.628L354.823 114.42Z" fill="#34C88A"/>
<path d="M280.753 87.5254L354.823 114.42L280.753 141.628L206.684 114.42L280.753 87.5254Z" fill="#DCFEF0"/>
<rect width="151.496" height="144.307" fill="black" fill-opacity="0" transform="translate(86.1753 215.693)"/>
<path d="M206.365 258.026L206.365 317.667L161.923 333.971L117.482 317.667L117.482 258.026L161.923 274.519L206.365 258.026Z" fill="#34C88A"/>
<path d="M161.923 241.723L206.365 258.026L161.923 274.519L117.482 258.026L161.923 241.723Z" fill="#DCFEF0"/>
<rect width="176.745" height="167.48" fill="black" fill-opacity="0" transform="translate(-3.05176e-05 86)"/>
<path d="M140.221 135.13L140.221 204.35L88.3726 223.271L36.5241 204.35L36.5241 135.131L88.3726 154.272L140.221 135.13Z" fill="#34C88A"/>
<path d="M88.3726 116.209L140.221 135.13L88.3726 154.272L36.5242 135.13L88.3726 116.209Z" fill="#DCFEF0"/>
<path d="M162.445 258.478L162.445 197.519L115 179.5" stroke="#3DD696" stroke-width="2" stroke-linecap="round" stroke-linejoin="round"/>
</svg>
