<svg width="166" height="45" viewBox="0 0 166 45" fill="none" xmlns="http://www.w3.org/2000/svg">
<rect width="165.939" height="45" fill="black" fill-opacity="0"/>
<path fill-rule="evenodd" clip-rule="evenodd" d="M59.9421 15.681C58.5764 15.1208 56.9583 14.8408 55.0878 14.8408C52.7424 14.8408 50.8422 15.2682 49.3875 16.1232C47.9327 16.9781 46.8045 18.1132 46.0028 19.5283C45.2012 20.9434 44.652 22.5648 44.3551 24.3927C44.0879 26.2205 43.9543 28.122 43.9543 30.0973C43.9543 32.8095 44.1769 35.1238 44.6223 37.0401C45.0973 38.9269 45.795 40.4599 46.7154 41.6392C47.6655 42.8184 48.8382 43.6733 50.2336 44.204C51.629 44.7347 53.2471 45 55.0878 45C56.9286 45 58.5467 44.7347 59.9421 44.204C61.3375 43.6733 62.4954 42.8184 63.4157 41.6392C64.3361 40.4304 65.019 38.8827 65.4643 36.9958C65.9393 35.0796 66.1769 32.7653 66.1769 30.053C66.1769 27.3408 65.9393 25.0265 65.4643 23.1102C65.019 21.1645 64.3361 19.5872 63.4157 18.3785C62.4954 17.1403 61.3375 16.2411 59.9421 15.681ZM57.6452 18.6788C56.9227 18.2365 56.0668 18.0154 55.0773 18.0154C53.8366 18.0154 52.8315 18.3529 52.0619 19.0279C51.2923 19.7029 50.6955 20.5989 50.2715 21.7161C49.8474 22.8333 49.5569 24.1134 49.3998 25.5564C49.2585 26.9995 49.1878 28.5006 49.1878 30.0601C49.1878 30.4684 49.1921 30.8654 49.2006 31.2509L60.8268 26.7458C60.7648 25.9499 60.678 25.2159 60.5664 24.544C60.3308 23.0078 59.9696 21.7627 59.4827 20.8084C58.9958 19.8309 58.3833 19.121 57.6452 18.6788ZM60.9433 29.9738L49.3974 34.4479C49.4391 34.8289 49.487 35.1934 49.5412 35.5412C49.7924 37.0308 50.1615 38.2411 50.6484 39.1721C51.151 40.1031 51.7713 40.778 52.5095 41.197C53.2476 41.6159 54.1036 41.8254 55.0773 41.8254C56.0511 41.8254 56.907 41.6159 57.6452 41.197C58.3833 40.778 58.9958 40.1031 59.4827 39.1721C59.9696 38.2178 60.3308 36.9959 60.5664 35.5063C60.8176 33.9935 60.9433 32.1664 60.9433 30.0251C60.9433 30.008 60.9433 29.9909 60.9433 29.9738Z" fill="#34C88A"/>
<path d="M126.659 27.7476H131.896V24.0577H126.659V22.8278C126.659 21.4523 126.83 20.5133 127.174 20.0107C127.518 19.4817 128.127 19.2172 128.999 19.2172C129.423 19.2172 129.899 19.2304 130.428 19.2569C130.957 19.2569 131.552 19.2701 132.213 19.2966L132.253 15.7654L127.968 15.3686C126.936 15.3686 126.063 15.4876 125.349 15.7257C124.635 15.9637 124.053 16.3737 123.603 16.9557C123.18 17.5376 122.863 18.3047 122.651 19.2569C122.466 20.1826 122.374 21.3597 122.374 22.7881V24.0577H118.546V27.7476H122.374V43.8959H126.659V27.7476Z" fill="#163F59"/>
<path d="M104.126 28.5015V43.8959H99.8017V24.0577H104.087V25.2877C106.044 24.1768 107.869 23.6213 109.562 23.6213C110.885 23.6213 111.982 23.8064 112.855 24.1768C113.728 24.5206 114.429 25.0893 114.958 25.8828C115.487 26.6499 115.857 27.6418 116.069 28.8586C116.307 30.0753 116.426 31.5433 116.426 33.2626V43.8959H112.141V33.3817C112.141 32.2972 112.088 31.3846 111.982 30.644C111.876 29.9034 111.691 29.295 111.427 28.8189C111.189 28.3428 110.832 27.9989 110.356 27.7873C109.906 27.5757 109.324 27.4699 108.61 27.4699C107.287 27.4699 105.991 27.7344 104.722 28.2634L104.126 28.5015Z" fill="#163F59"/>
<path d="M69.9222 43.8959L75.6753 33.9371L69.9222 24.0577H74.5247L78.413 30.9218L82.3409 24.0577H86.9434L81.0316 33.8181L86.9434 43.8959H82.3409L78.413 37.1113L74.5247 43.8959H69.9222Z" fill="#163F59"/>
<path d="M94.556 24.0577V43.8959H90.2313V24.0577H94.556Z" fill="#163F59"/>
<path d="M139.502 43.8959H135.177V24.0577H139.462V26.4383C141.684 25.0099 143.932 24.071 146.207 23.6213V27.946C144.012 28.3692 142.068 28.9511 140.375 29.6918L139.502 30.0489V43.8959Z" fill="#163F59"/>
<path fill-rule="evenodd" clip-rule="evenodd" d="M164.194 39.2141V30.1679C164.194 27.8667 163.665 26.2003 162.607 25.1687C161.549 24.1371 159.803 23.6213 157.369 23.6213C155.015 23.6213 152.357 23.9651 149.394 24.6529L149.553 27.7079L150.823 27.6286C152.092 27.5228 153.256 27.4435 154.314 27.3905C155.372 27.3376 156.324 27.3112 157.171 27.3112C158.07 27.3112 158.745 27.5228 159.194 27.946C159.671 28.3692 159.909 29.1099 159.909 30.1679V31.5963L154.79 32.0327C152.542 32.2178 150.889 32.7601 149.831 33.6594C148.773 34.5587 148.244 36.0135 148.244 38.0238C148.244 42.2295 150.214 44.3324 154.156 44.3324C156.351 44.3324 158.48 43.843 160.543 42.8643C161.76 43.843 163.519 44.3324 165.82 44.3324L165.939 41.0392C165.358 40.9599 164.921 40.7879 164.63 40.5234C164.366 40.2325 164.22 39.796 164.194 39.2141ZM155.306 35.0878L159.909 34.6513V39.9283L159.194 40.1664C157.766 40.5896 156.364 40.8011 154.989 40.8011C153.375 40.8011 152.568 39.8886 152.568 38.0635C152.568 36.2384 153.481 35.2465 155.306 35.0878Z" fill="#163F59"/>
<path d="M92.4053 21.0912C93.9855 21.0912 95.2665 19.8101 95.2665 18.2299C95.2665 16.6496 93.9855 15.3686 92.4053 15.3686C90.825 15.3686 89.544 16.6496 89.544 18.2299C89.544 19.8101 90.825 21.0912 92.4053 21.0912Z" fill="#163F59"/>
<rect width="36.2416" height="35.8406" fill="black" fill-opacity="0"/>
<path d="M6.08745 2.06433L6.08745 15.4412C6.08745 15.898 6.4494 16.2677 6.89459 16.2657L12.828 16.2386C13.445 16.2357 13.8288 15.5501 13.5203 15.0018L12.7513 13.6351C12.4185 13.0436 11.6813 12.8409 11.1048 13.1824L11.0231 13.2308C10.4533 13.5684 9.72467 13.3681 9.39569 12.7834C9.22516 12.4804 9.1894 12.1168 9.29746 11.7849L10.5314 7.99469C10.7244 7.40196 11.318 7.05007 11.9149 7.17459L15.7347 7.97157C16.0691 8.04134 16.3582 8.2549 16.5288 8.55811C16.8577 9.14262 16.6626 9.89004 16.0929 10.2275L16.0109 10.2761C15.4344 10.6176 15.2369 11.374 15.5697 11.9655L16.3273 13.3118C16.6358 13.8601 17.4064 13.8618 17.7173 13.315L20.6836 8.09712C20.9079 7.70255 20.7768 7.19605 20.3912 6.96766L9.10079 0.279231C7.76153 -0.514146 6.08745 0.477575 6.08745 2.06433Z" fill="#34C88A"/>
<path d="M35.2372 15.7713L23.9467 9.08292C23.5612 8.85452 23.0681 8.99128 22.8473 9.38789L19.9034 14.6739C19.5973 15.2235 19.9841 15.9074 20.6011 15.9074H22.5409C22.9847 15.9074 23.3445 15.5383 23.3445 15.0829V14.176C23.3445 13.7206 23.7043 13.3515 24.1481 13.3515L24.7104 13.3515C24.9405 13.3515 25.1595 13.4526 25.312 13.6294L28.2455 17.0282C28.5147 17.3401 28.5149 17.8091 28.2459 18.1211L25.312 21.5244C25.1595 21.7013 24.9403 21.8026 24.7101 21.8026H24.1481C23.7043 21.8026 23.3445 21.4335 23.3445 20.9781V20.0712C23.3445 19.6158 22.9847 19.2467 22.5409 19.2467H20.6241C20.0071 19.2467 19.6203 19.9306 19.9264 20.4802L22.8473 25.725C23.0681 26.1216 23.5612 26.2584 23.9467 26.03L35.2372 19.3415C36.5764 18.5482 36.5764 16.5647 35.2372 15.7713Z" fill="#34C88A"/>
<path d="M9.0952 34.8084L20.3856 28.12C20.7712 27.8916 20.9023 27.3851 20.678 26.9905L17.6884 21.7317C17.3775 21.1848 16.6069 21.1866 16.2984 21.7348L15.3284 23.4586C15.1065 23.8529 15.2382 24.3572 15.6226 24.5848L16.3881 25.0383C16.7724 25.266 16.9041 25.7703 16.6822 26.1646L16.401 26.6643C16.286 26.8687 16.0911 27.0128 15.8657 27.0599L11.5302 27.9673C11.1323 28.0505 10.7365 27.8162 10.6076 27.4211L9.20205 23.1124C9.12898 22.8884 9.15305 22.6431 9.26815 22.4385L9.54918 21.939C9.77108 21.5447 10.2625 21.4096 10.6469 21.6373L11.4124 22.0907C11.7967 22.3184 12.2881 22.1833 12.51 21.7889L13.4685 20.0856C13.777 19.5374 13.3931 18.8517 12.7762 18.8489L6.88899 18.822C6.44381 18.8199 6.08186 19.1897 6.08186 19.6465L6.08185 33.0233C6.08185 33.0233 6.08185 33.0233 6.08185 33.0233C6.08185 34.6101 7.75594 35.6018 9.0952 34.8084Z" fill="#163F59"/>
</svg>
