<svg width="259" height="65" viewBox="0 0 259 65" fill="none" xmlns="http://www.w3.org/2000/svg">
<rect width="259" height="65" fill="black" fill-opacity="0"/>
<path d="M89.563 34.3737H95.3967V39.9304C95.0078 40.318 94.4892 40.7057 93.7114 41.0934C92.5446 41.6103 91.2482 41.8687 89.6926 41.8687C88.3962 41.8687 87.0998 41.4811 86.0627 40.8349C85.0256 40.1888 84.2478 39.155 83.5996 37.8628C83.081 36.5705 82.8218 35.149 82.8218 33.4691V30.8846C82.8218 28.3001 83.47 26.2325 84.6367 24.8111C85.8035 23.3896 87.3591 22.6143 89.4333 22.6143C91.1186 22.6143 92.415 23.0019 93.4521 23.7773C94.4892 24.5526 95.1374 25.8449 95.3967 27.3956H97.2116C96.9523 25.4572 96.1745 23.9065 94.7485 22.7435C93.4521 21.5805 91.6372 21.0636 89.4333 21.0636C86.8406 21.0636 84.896 21.9681 83.3403 23.648C81.7847 25.328 81.0068 27.7832 81.0068 30.7554V33.5983C81.0068 35.5367 81.3957 37.2166 82.0439 38.6381C82.8218 40.0596 83.7292 41.2226 85.1553 42.1272C86.4516 42.9025 88.0073 43.2902 89.6926 43.2902C91.3779 43.2902 92.9335 43.0317 94.2299 42.5148C95.5263 41.9979 96.5634 41.3518 97.2116 40.4473V32.823H89.563V34.3737ZM112.25 38.6381C111.601 40.7057 109.916 41.8687 107.323 41.8687C104.86 41.8687 103.564 40.318 103.564 37.3459V27.1371H101.749V37.4751C101.749 39.4135 102.267 40.8349 103.175 41.8687C104.082 42.9025 105.379 43.4194 107.064 43.4194C109.398 43.4194 111.083 42.6441 112.25 41.0934V43.161H114.065V27.0079H112.25V38.6381ZM130.269 31.7892C130.269 30.2385 129.751 28.9463 128.714 28.0417C127.677 27.1371 126.251 26.7494 124.436 26.7494C122.75 26.7494 121.195 27.2663 120.028 28.1709C118.861 29.0755 118.213 30.2385 118.213 31.5308H120.028C120.028 30.6262 120.417 29.8508 121.195 29.2047C121.972 28.5586 123.01 28.3001 124.306 28.3001C125.602 28.3001 126.639 28.6878 127.417 29.3339C128.065 29.9801 128.454 30.8846 128.454 32.0477V33.8568H125.213C122.88 33.8568 121.065 34.3737 119.769 35.2783C118.472 36.1828 117.824 37.4751 117.824 39.0258C117.824 40.318 118.343 41.4811 119.25 42.2564C120.158 43.161 121.454 43.5486 123.01 43.5486C124.047 43.5486 125.084 43.2902 126.121 42.9025C127.028 42.5148 127.936 41.8687 128.454 41.0934C128.454 42.1272 128.584 42.7733 128.843 43.2902H130.788V43.161C130.399 42.3856 130.269 41.2226 130.269 39.6719V31.7892ZM128.454 38.6381C128.065 39.5427 127.288 40.4473 126.38 40.9642C125.473 41.4811 124.436 41.8687 123.139 41.8687C122.102 41.8687 121.195 41.6103 120.546 40.9642C119.898 40.318 119.509 39.6719 119.509 38.7673C119.509 37.7335 120.028 36.829 121.065 36.1828C122.102 35.5367 123.398 35.2783 125.213 35.149H128.454V38.6381ZM136.751 29.5924V27.0079H135.066V43.0317H136.881V32.0477C137.27 30.8846 137.788 29.9801 138.566 29.3339C139.344 28.6878 140.251 28.4294 141.418 28.4294C141.807 28.4294 142.196 28.4294 142.585 28.5586V27.0079C142.326 26.8787 141.937 26.7494 141.418 26.7494C139.214 26.7494 137.659 27.654 136.751 29.5924ZM155.03 29.3339C153.863 27.654 152.178 26.7494 150.104 26.7494C148.159 26.7494 146.733 27.5248 145.567 28.9463C144.4 30.3677 143.881 32.4353 143.881 34.8906V35.149C143.881 37.7335 144.4 39.6719 145.567 41.2226C146.733 42.6441 148.159 43.4194 150.104 43.4194C152.308 43.4194 153.993 42.6441 155.16 40.9642L155.289 43.161H156.975V20.2882H155.16V29.3339H155.03ZM155.03 38.8966C154.123 40.8349 152.567 41.7395 150.363 41.7395C148.808 41.7395 147.77 41.0934 146.863 39.9304C146.085 38.7673 145.567 37.0874 145.567 35.149C145.567 32.823 145.956 31.1431 146.863 29.9801C147.641 28.817 148.808 28.1709 150.363 28.1709C152.567 28.1709 154.123 29.2047 155.03 31.2723V38.8966ZM173.05 39.4135V31.7892C173.05 30.2385 172.531 28.9463 171.494 28.0417C170.457 27.1371 169.031 26.7494 167.216 26.7494C165.531 26.7494 163.975 27.2663 162.808 28.1709C161.642 29.0755 160.994 30.2385 160.994 31.5308H162.808C162.808 30.6262 163.197 29.8508 163.975 29.2047C164.753 28.5586 165.79 28.3001 167.087 28.3001C168.383 28.3001 169.42 28.6878 170.198 29.3339C170.846 29.9801 171.235 30.8846 171.235 32.0477V33.8568H167.994C165.661 33.8568 163.846 34.3737 162.549 35.2783C161.253 36.1828 160.605 37.4751 160.605 39.0258C160.605 40.318 161.123 41.4811 162.031 42.2564C162.938 43.161 164.235 43.5486 165.79 43.5486C166.827 43.5486 167.864 43.2902 168.901 42.9025C169.809 42.5148 170.716 41.8687 171.235 40.9642C171.235 41.9979 171.365 42.6441 171.624 43.161H173.568V43.0317C173.309 42.1272 173.05 40.9642 173.05 39.4135ZM171.365 38.6381C170.976 39.5427 170.198 40.4473 169.29 40.9642C168.383 41.4811 167.346 41.8687 166.049 41.8687C165.012 41.8687 164.105 41.6103 163.457 40.9642C162.808 40.318 162.42 39.6719 162.42 38.7673C162.42 37.7335 162.938 36.829 163.975 36.1828C165.012 35.5367 166.309 35.2783 168.124 35.149H171.365V38.6381Z" fill="#7A90E5"/>
<path d="M199.107 37.2166L198.459 40.5765L197.681 37.3459L193.014 21.4512H191.329L186.662 37.3459L185.884 40.5765L185.236 37.2166L181.347 21.4512H179.532L185.106 43.0317H186.921L191.977 26.2325L192.496 24.0357L193.014 26.2325L197.94 43.0317H199.755L205.33 21.4512H203.515L199.107 37.2166ZM218.553 31.7892C218.553 30.2385 218.034 28.9463 216.997 28.0417C215.96 27.1371 214.534 26.7494 212.719 26.7494C211.034 26.7494 209.478 27.2663 208.312 28.1709C207.145 29.0755 206.497 30.2385 206.497 31.5308H208.312C208.312 30.6262 208.7 29.8508 209.478 29.2047C210.256 28.5586 211.293 28.3001 212.59 28.3001C213.886 28.3001 214.923 28.6878 215.701 29.3339C216.349 29.9801 216.738 30.8846 216.738 32.0477V33.8568H213.497C211.164 33.8568 209.349 34.3737 208.052 35.2783C206.756 36.1828 206.108 37.4751 206.108 39.0258C206.108 40.318 206.626 41.4811 207.534 42.2564C208.441 43.161 209.738 43.5486 211.293 43.5486C212.33 43.5486 213.367 43.2902 214.405 42.9025C215.312 42.5148 216.219 41.8687 216.738 41.0934C216.738 42.1272 216.868 42.7733 217.127 43.2902H219.071V43.161C218.683 42.3856 218.553 41.2226 218.553 39.6719V31.7892ZM216.868 38.6381C216.479 39.5427 215.701 40.4473 214.793 40.9642C213.886 41.4811 212.849 41.8687 211.552 41.8687C210.515 41.8687 209.608 41.6103 208.96 40.9642C208.312 40.318 207.923 39.6719 207.923 38.7673C207.923 37.7335 208.441 36.829 209.478 36.1828C210.515 35.5367 211.812 35.2783 213.627 35.149H216.868V38.6381ZM223.609 43.0317H225.424V20.2882H223.609V43.0317ZM230.35 43.0317H232.165V20.2882H230.35V43.0317ZM242.925 26.7494C241.629 26.7494 240.462 27.1371 239.425 27.7832C238.388 28.4294 237.48 29.4632 236.962 30.6262C236.313 31.9184 236.054 33.2107 236.054 34.7614V35.4075C236.054 36.9582 236.313 38.2504 236.962 39.4135C237.61 40.5765 238.388 41.6103 239.554 42.2564C240.721 42.9025 241.888 43.2902 243.314 43.2902C245.777 43.2902 247.722 42.3856 249.018 40.4473L247.851 39.5427C247.203 40.318 246.555 40.8349 245.907 41.2226C245.129 41.6103 244.351 41.7395 243.443 41.7395C241.888 41.7395 240.591 41.0934 239.554 39.9304C238.517 38.7673 237.999 37.2166 237.999 35.4075V35.0198H249.407V33.986C249.407 31.66 248.888 29.8508 247.722 28.5586C246.425 27.3956 244.869 26.7494 242.925 26.7494ZM247.462 33.5983H237.869C238.128 31.9184 238.647 30.6262 239.554 29.7216C240.462 28.6878 241.629 28.3001 242.925 28.3001C244.221 28.3001 245.388 28.817 246.166 29.7216C246.944 30.6262 247.462 31.9184 247.462 33.4691V33.5983ZM259 41.6103C258.352 41.7395 257.833 41.7395 257.574 41.7395C256.796 41.7395 256.278 41.481 256.018 41.0934C255.759 40.7057 255.5 40.0596 255.5 39.155V28.4294H258.87V27.0079H255.5V22.8727H253.685V27.0079H250.703V28.4294H253.685V39.155C253.685 40.5765 253.944 41.6103 254.463 42.2564C254.981 42.9025 255.889 43.2902 257.055 43.2902C257.833 43.2902 258.481 43.161 259 43.0317V41.6103Z" fill="#7A90E5"/>
<path d="M44.06 18.3499L28.7627 14.6024H28.633L13.3357 18.3499C13.2061 18.3499 13.2061 18.4791 13.2061 18.6084C13.2061 18.8668 11.3912 44.4533 28.633 50.3976H28.7627C46.1342 44.4533 44.3193 18.8668 44.1896 18.6084C44.3193 18.4791 44.1896 18.4791 44.06 18.3499ZM57.2831 7.23658C57.2831 6.97813 57.1534 6.84891 56.8942 6.84891L28.7627 0C28.633 0 28.633 0 28.5034 0L0.50157 6.84891C0.371931 6.84891 0.112655 7.10736 0.112655 7.23658C0.112655 7.75348 -3.38757 54.1451 28.633 65C28.7627 65 28.8923 65 28.8923 65C60.7833 54.2744 57.4127 7.75348 57.2831 7.23658ZM28.8923 59.3141C28.7627 59.3141 28.7627 59.3141 28.633 59.3141C2.31651 50.3976 5.16854 12.1471 5.16854 11.7594C5.16854 11.6302 5.29818 11.501 5.42782 11.3718L28.633 5.81511H28.7627L51.9679 11.3718C52.0975 11.3718 52.2272 11.501 52.2272 11.7594C52.2272 12.1471 55.0792 50.3976 28.8923 59.3141Z" fill="#798CE5"/>
</svg>
