<svg width="257" height="62" viewBox="0 0 257 62" fill="none" xmlns="http://www.w3.org/2000/svg">
<rect width="256.185" height="61.5773" fill="black" fill-opacity="0" transform="translate(0.815002)"/>
<path d="M31.6036 0C25.5142 0 19.5616 1.80572 14.4984 5.18882C9.43523 8.57192 5.48898 13.3804 3.15866 19.0063C0.828343 24.6322 0.218625 30.8228 1.40661 36.7952C2.5946 42.7676 5.52693 48.2536 9.8328 52.5595C14.1387 56.8653 19.6247 59.7977 25.5971 60.9856C31.5695 62.1736 37.7601 61.5639 43.3859 59.2336C49.0118 56.9033 53.8204 52.957 57.2034 47.8939C60.5865 42.8307 62.3923 36.878 62.3923 30.7886C62.3923 26.7454 61.5959 22.7418 60.0486 19.0063C58.5013 15.2709 56.2335 11.8768 53.3745 9.01778C50.5155 6.15879 47.1214 3.89092 43.3859 2.34364C39.6505 0.796371 35.6469 0 31.6036 0ZM42.7376 40.8542L34.8162 48.8806C34.4054 49.2983 33.9156 49.6301 33.3752 49.8566C32.8349 50.083 32.2549 50.1997 31.669 50.1997C31.0831 50.1997 30.5031 50.083 29.9627 49.8566C29.4224 49.6301 28.9325 49.2983 28.5217 48.8806L20.5799 40.8645C19.7445 40.0145 19.2765 38.8705 19.2765 37.6788C19.2765 36.4871 19.7445 35.343 20.5799 34.4931C20.8355 34.2331 21.1403 34.0265 21.4766 33.8856C21.8128 33.7446 22.1738 33.672 22.5384 33.672C22.9031 33.672 23.264 33.7446 23.6003 33.8856C23.9366 34.0265 24.2414 34.2331 24.497 34.4931L28.5089 38.5485C28.9197 38.9663 29.4096 39.2981 29.9499 39.5245C30.4902 39.751 31.0703 39.8676 31.6562 39.8676C32.242 39.8676 32.8221 39.751 33.3624 39.5245C33.9028 39.2981 34.3926 38.9663 34.8034 38.5485L38.8102 34.488C39.0658 34.2279 39.3706 34.0214 39.7069 33.8804C40.0432 33.7394 40.4041 33.6668 40.7688 33.6668C41.1334 33.6668 41.4943 33.7394 41.8306 33.8804C42.1669 34.0214 42.4717 34.2279 42.7273 34.488C43.5617 35.3362 44.0302 36.4779 44.0321 37.6677C44.034 38.8576 43.5692 40.0007 42.7376 40.8517V40.8542ZM51.0688 28.0218C50.825 28.2747 50.5334 28.4766 50.2108 28.6157C49.8883 28.7548 49.5413 28.8283 49.19 28.8318C48.8388 28.8354 48.4903 28.769 48.165 28.6366C47.8397 28.5041 47.544 28.3082 47.2951 28.0602L43.4651 24.1867C43.0649 23.788 42.5892 23.4729 42.0659 23.26C41.5426 23.0471 40.9821 22.9405 40.4172 22.9464C39.8522 22.9524 39.2941 23.0708 38.7754 23.2947C38.2567 23.5187 37.7878 23.8436 37.396 24.2507L33.4969 28.2011C33.2123 28.4918 32.8654 28.7141 32.4825 28.8512C32.0995 28.9883 31.6904 29.0367 31.286 28.9927C30.6674 28.9406 30.0882 28.6678 29.6541 28.2242L25.8266 24.3609C25.4263 23.9622 24.9507 23.6471 24.4274 23.4342C23.9041 23.2213 23.3436 23.1147 22.7786 23.1206C22.2137 23.1266 21.6556 23.245 21.1369 23.4689C20.6182 23.6929 20.1493 24.0178 19.7575 24.4249L15.8584 28.3753C15.6146 28.6283 15.323 28.8302 15.0004 28.9693C14.6779 29.1083 14.3308 29.1818 13.9796 29.1854C13.6283 29.189 13.2799 29.1226 12.9546 28.9901C12.6292 28.8576 12.3335 28.6617 12.0847 28.4138C11.2849 27.5868 10.8424 26.4784 10.853 25.328C10.8635 24.1775 11.3262 23.0774 12.1411 22.2653L19.8446 14.4618C20.2361 14.054 20.7049 13.7283 21.2236 13.5037C21.7424 13.2791 22.3007 13.1601 22.8659 13.1536C23.4312 13.1472 23.9921 13.2534 24.5158 13.4662C25.0395 13.6789 25.5156 13.9938 25.9163 14.3926L31.6549 20.2004L37.4908 14.2876C37.8826 13.8805 38.3515 13.5555 38.8702 13.3316C39.3889 13.1077 39.947 12.9892 40.5119 12.9833C41.0769 12.9773 41.6374 13.0839 42.1607 13.2969C42.684 13.5098 43.1596 13.8248 43.5599 14.2235L51.1251 21.8759C51.9234 22.7026 52.3649 23.8099 52.3543 24.9591C52.3438 26.1083 51.8821 27.2073 51.0688 28.0192V28.0218Z" fill="#007896"/>
<path d="M104.205 20.8869L95.6761 31.8697C95.6509 31.9021 95.6187 31.9284 95.5819 31.9466C95.545 31.9648 95.5046 31.9744 95.4635 31.9747H94.4208C94.3799 31.9747 94.3396 31.9655 94.3028 31.9478C94.266 31.9301 94.2336 31.9042 94.2082 31.8722L85.6694 20.9766C85.6345 20.9326 85.5868 20.9006 85.5329 20.8848C85.479 20.8691 85.4216 20.8704 85.3685 20.8887C85.3154 20.9069 85.2692 20.9412 85.2364 20.9868C85.2036 21.0323 85.1857 21.087 85.1852 21.1431V41.5766C85.1852 41.6487 85.1566 41.7177 85.1057 41.7687C85.0548 41.8196 84.9857 41.8482 84.9137 41.8482H81.4398C81.3677 41.8482 81.2987 41.8196 81.2478 41.7687C81.1968 41.7177 81.1682 41.6487 81.1682 41.5766L81.2169 13.0809C81.2176 13.0093 81.2465 12.9409 81.2973 12.8905C81.3482 12.8401 81.4169 12.8119 81.4884 12.8119H83.9888C84.0299 12.8122 84.0704 12.8218 84.1072 12.84C84.1441 12.8582 84.1763 12.8845 84.2015 12.9169L94.7462 26.4744C94.7716 26.5069 94.804 26.5331 94.8411 26.5512C94.8781 26.5693 94.9188 26.5786 94.9601 26.5786C95.0013 26.5786 95.042 26.5693 95.0791 26.5512C95.1161 26.5331 95.1486 26.5069 95.174 26.4744L105.678 12.9169C105.703 12.8841 105.736 12.8576 105.773 12.8394C105.81 12.8212 105.851 12.8118 105.893 12.8119H108.393C108.465 12.8119 108.534 12.8405 108.585 12.8914C108.636 12.9424 108.665 13.0114 108.665 13.0834V41.5766C108.665 41.6487 108.636 41.7177 108.585 41.7687C108.534 41.8196 108.465 41.8482 108.393 41.8482H104.96C104.888 41.8482 104.819 41.8196 104.768 41.7687C104.717 41.7177 104.689 41.6487 104.689 41.5766V21.0534C104.688 20.9973 104.67 20.9427 104.638 20.8971C104.605 20.8516 104.559 20.8173 104.506 20.799C104.452 20.7808 104.395 20.7794 104.341 20.7952C104.287 20.8109 104.24 20.843 104.205 20.8869Z" fill="#007896"/>
<path d="M120.221 49.3955H116.684C116.638 49.3982 116.593 49.3886 116.552 49.3679C116.512 49.3473 116.477 49.3161 116.453 49.2778C116.428 49.2394 116.414 49.1952 116.413 49.1497C116.411 49.1042 116.421 49.0591 116.443 49.0189L120.234 40.7927C120.251 40.7583 120.259 40.7207 120.259 40.6826C120.259 40.6444 120.251 40.6068 120.234 40.5724L111.757 21.8963C111.736 21.8563 111.726 21.8114 111.728 21.7663C111.731 21.7212 111.744 21.6774 111.769 21.6394C111.793 21.6015 111.827 21.5706 111.868 21.5501C111.908 21.5295 111.953 21.5199 111.998 21.5223H115.764C115.818 21.5187 115.873 21.5326 115.919 21.5621C115.965 21.5916 116 21.6351 116.02 21.6863L121.807 35.7971C122.028 36.2348 122.159 36.712 122.194 37.201H122.389C122.413 36.7245 122.51 36.2545 122.676 35.8073V35.7868L128.46 21.6965C128.48 21.6454 128.516 21.6019 128.562 21.5724C128.608 21.5429 128.662 21.5289 128.717 21.5325H132.198C132.243 21.5299 132.288 21.5392 132.328 21.5595C132.369 21.5797 132.403 21.6102 132.427 21.6479C132.452 21.6856 132.466 21.7291 132.469 21.774C132.471 21.819 132.462 21.8638 132.442 21.904L120.465 49.2341C120.446 49.2826 120.412 49.324 120.368 49.3529C120.325 49.3817 120.274 49.3966 120.221 49.3955Z" fill="#007896"/>
<path d="M160.082 38.6613C160.122 38.7119 160.142 38.7759 160.137 38.8406C160.133 38.9052 160.104 38.9657 160.056 39.0097L159.833 39.2326C159.472 39.5531 159.092 39.8517 158.696 40.1267C158.095 40.5645 157.456 40.9453 156.785 41.2642C155.919 41.6499 155.014 41.9427 154.087 42.1378C152.928 42.3991 151.742 42.5288 150.554 42.5246C146.264 42.5246 142.763 41.0729 140.05 38.1695C137.338 35.266 135.983 31.6683 135.985 27.3763C135.985 23.0535 137.331 19.4404 140.025 16.537C142.718 13.6335 146.227 12.1818 150.552 12.1818C152.365 12.165 154.167 12.4802 155.867 13.1117C157.481 13.7249 158.61 14.338 159.254 14.9512L160.048 15.7069C160.098 15.7505 160.129 15.8116 160.135 15.8775C160.141 15.9434 160.121 16.009 160.079 16.0605L158.099 18.7018C158.077 18.7344 158.048 18.7616 158.014 18.7813C157.98 18.801 157.942 18.8126 157.903 18.8154C157.864 18.8181 157.825 18.8118 157.789 18.797C157.752 18.7822 157.72 18.7592 157.694 18.7299L157.584 18.63C157.439 18.5002 157.124 18.2662 156.641 17.9281C156.16 17.5911 155.659 17.284 155.14 17.0084C154.501 16.6893 153.827 16.446 153.131 16.2833C152.301 16.0725 151.447 15.9666 150.59 15.9682C147.524 15.9682 145.008 17.0656 143.04 19.2602C141.073 21.4549 140.089 24.1654 140.089 27.3916C140.089 30.5854 141.073 33.2797 143.04 35.4744C145.008 37.669 147.524 38.7664 150.59 38.7664C151.917 38.7715 153.232 38.5165 154.461 38.0157C155.68 37.5187 156.564 37.0294 157.112 36.5478L157.13 36.5324L157.679 35.9842C157.705 35.9554 157.737 35.9328 157.773 35.9183C157.809 35.9038 157.848 35.8977 157.887 35.9004C157.925 35.9031 157.963 35.9146 157.997 35.934C158.03 35.9534 158.059 35.9802 158.081 36.0124L160.082 38.6613Z" fill="#007896"/>
<path d="M174.705 24.4481C174.705 24.516 174.678 24.5812 174.63 24.6292C174.582 24.6773 174.517 24.7043 174.449 24.7043H172.568C171.876 24.6935 171.188 24.828 170.551 25.0989C169.913 25.3698 169.339 25.7712 168.866 26.2773C168.359 26.7987 167.962 27.4165 167.698 28.0942C167.434 28.7718 167.309 29.4956 167.329 30.2226V41.5691C167.329 41.637 167.302 41.7022 167.254 41.7503C167.206 41.7983 167.141 41.8253 167.073 41.8253H163.63C163.562 41.8253 163.497 41.7983 163.449 41.7503C163.401 41.7022 163.374 41.637 163.374 41.5691V21.7889C163.374 21.7209 163.401 21.6558 163.449 21.6077C163.497 21.5597 163.562 21.5327 163.63 21.5327H166.087C166.155 21.5327 166.22 21.5597 166.268 21.6077C166.316 21.6558 166.343 21.7209 166.343 21.7889L166.448 24.9656H166.689C167.154 23.8909 167.952 22.9933 168.964 22.4037C170.053 21.7752 171.293 21.4571 172.55 21.484H174.431C174.499 21.484 174.564 21.511 174.612 21.559C174.66 21.6071 174.687 21.6722 174.687 21.7402L174.705 24.4481Z" fill="#007896"/>
<path d="M185.211 49.3957H181.688C181.642 49.3991 181.596 49.39 181.555 49.3694C181.514 49.3488 181.479 49.3174 181.454 49.2786C181.429 49.2397 181.415 49.1949 181.413 49.1488C181.412 49.1026 181.423 49.0569 181.445 49.0165L185.237 40.7955C185.253 40.7607 185.262 40.7226 185.262 40.684C185.262 40.6454 185.253 40.6073 185.237 40.5726L176.749 21.8991C176.728 21.8587 176.717 21.8133 176.719 21.7676C176.721 21.7218 176.735 21.6774 176.76 21.639C176.785 21.6006 176.819 21.5695 176.86 21.549C176.901 21.5285 176.947 21.5193 176.993 21.5225H180.753C180.808 21.519 180.863 21.5334 180.909 21.5634C180.955 21.5933 180.99 21.6374 181.01 21.689L186.797 35.7998C187.053 36.3813 187.414 36.8476 187.414 37.2037H187.158C187.158 36.8476 187.483 36.3813 187.67 35.7998L193.458 21.689C193.477 21.6374 193.512 21.5933 193.558 21.5634C193.604 21.5334 193.659 21.519 193.714 21.5225H197.19C197.237 21.5171 197.284 21.5244 197.326 21.5438C197.369 21.5631 197.405 21.5937 197.431 21.6322C197.458 21.6707 197.473 21.7156 197.476 21.7622C197.478 21.8088 197.468 21.8552 197.447 21.8965L185.457 49.2343C185.438 49.2832 185.404 49.3249 185.36 49.3538C185.316 49.3827 185.264 49.3973 185.211 49.3957Z" fill="#007896"/>
<path d="M203.37 39.2812V49.1291C203.37 49.197 203.343 49.2622 203.295 49.3102C203.247 49.3583 203.181 49.3852 203.113 49.3852H199.668C199.6 49.3852 199.535 49.3583 199.487 49.3102C199.439 49.2622 199.412 49.197 199.412 49.1291V21.7862C199.412 21.7182 199.439 21.6531 199.487 21.605C199.535 21.557 199.6 21.53 199.668 21.53H202.306C202.374 21.53 202.44 21.557 202.488 21.605C202.536 21.6531 202.563 21.7182 202.563 21.7862L202.586 24.4736H202.783C202.827 24.4744 202.87 24.464 202.908 24.4433C202.947 24.4227 202.98 24.3925 203.003 24.3557L203.167 24.0995C203.4 23.8047 203.657 23.5296 203.936 23.2772C204.361 22.869 204.832 22.5114 205.34 22.2114C206.003 21.8465 206.711 21.57 207.446 21.3891C208.369 21.1422 209.321 21.0198 210.276 21.0253C211.55 20.9968 212.815 21.2437 213.984 21.7491C215.154 22.2544 216.201 23.0064 217.053 23.9535C218.86 25.9057 219.763 28.4786 219.763 31.6724C219.763 34.8013 218.868 37.3581 217.078 39.3427C216.254 40.2967 215.23 41.0578 214.079 41.5722C212.928 42.0867 211.678 42.3418 210.417 42.3196C209.481 42.3267 208.547 42.2209 207.635 42.0045C206.929 41.8554 206.252 41.596 205.627 41.2359C205.194 40.9668 204.782 40.6671 204.392 40.3393C204.132 40.1304 203.899 39.8904 203.698 39.6245L203.682 39.6014L203.495 39.2761L203.37 39.2812ZM204.966 37.0319C205.573 37.7199 206.331 38.2585 207.181 38.6055C208.03 38.9526 208.949 39.0988 209.864 39.0327C211.236 38.9732 212.539 38.4179 213.533 37.47C215.017 36.0387 215.759 34.1105 215.759 31.6852C215.759 29.5555 215.171 27.7972 213.994 26.4103C213.455 25.7458 212.772 25.213 211.997 24.8525C211.221 24.4919 210.373 24.3133 209.518 24.3301C208.659 24.3149 207.808 24.4866 207.022 24.8334C206.236 25.1803 205.536 25.6939 204.968 26.3386C203.742 27.6776 203.129 29.4598 203.129 31.6852C203.129 33.9107 203.742 35.6929 204.968 37.0319H204.966Z" fill="#007896"/>
<path d="M224.513 21.2508V15.5967C224.513 15.5603 224.52 15.5242 224.534 15.4907C224.549 15.4572 224.57 15.427 224.596 15.4018C224.622 15.3767 224.654 15.3571 224.688 15.3444C224.722 15.3316 224.758 15.326 224.795 15.3277H228.222C228.294 15.3277 228.362 15.356 228.413 15.4065C228.463 15.4569 228.491 15.5254 228.491 15.5967V21.2508C228.491 21.3221 228.52 21.3905 228.57 21.441C228.621 21.4914 228.689 21.5198 228.76 21.5198H234.017C234.089 21.5198 234.157 21.5481 234.208 21.5985C234.258 21.649 234.286 21.7174 234.286 21.7887V24.3967C234.286 24.4681 234.258 24.5365 234.208 24.5869C234.157 24.6374 234.089 24.6657 234.017 24.6657H228.753C228.681 24.6657 228.613 24.6941 228.563 24.7445C228.512 24.795 228.484 24.8634 228.484 24.9347V35.8919C228.484 37.9243 229.423 38.9405 231.302 38.9405C231.754 38.9354 232.203 38.862 232.634 38.7227C233.014 38.6154 233.38 38.4614 233.723 38.2642L233.853 38.1976C233.886 38.181 233.922 38.1713 233.959 38.1692C233.996 38.1671 234.033 38.1726 234.067 38.1854C234.102 38.1981 234.134 38.2178 234.16 38.2432C234.187 38.2687 234.208 38.2994 234.222 38.3333L235.247 40.6954C235.273 40.7493 235.279 40.8106 235.265 40.8686C235.25 40.9266 235.216 40.9777 235.168 41.0131C234.994 41.1406 234.813 41.257 234.625 41.3615C234.208 41.5797 233.771 41.7573 233.321 41.8918C232.366 42.2036 231.365 42.3474 230.362 42.3171C228.438 42.2573 226.997 41.6945 226.037 40.6288C225.012 39.4998 224.5 37.9354 224.5 35.9354V24.9194C224.5 24.848 224.472 24.7796 224.421 24.7291C224.371 24.6787 224.302 24.6504 224.231 24.6504H221.057C220.985 24.6504 220.917 24.622 220.867 24.5716C220.816 24.5211 220.788 24.4527 220.788 24.3814V21.7913C220.788 21.72 220.816 21.6515 220.867 21.6011C220.917 21.5507 220.985 21.5223 221.057 21.5223H224.244C224.279 21.5223 224.315 21.5153 224.347 21.5016C224.38 21.4879 224.41 21.4679 224.435 21.4426C224.46 21.4174 224.48 21.3874 224.493 21.3545C224.506 21.3215 224.513 21.2863 224.513 21.2508Z" fill="#007896"/>
<path d="M254 39.4274C252 41.3624 249.548 42.33 246.645 42.33C243.709 42.33 241.257 41.3624 239.29 39.4274C237.322 37.4923 236.338 34.9432 236.338 31.7802C236.338 28.5864 237.331 25.9972 239.315 24.0126C241.3 22.028 243.744 21.0357 246.647 21.0357C248.013 21.0069 249.37 21.2585 250.635 21.775C251.9 22.2914 253.045 23.0617 254 24.0382C256 26.0381 257 28.6188 257 31.7802C257 34.9415 256 37.4906 254 39.4274ZM251.182 37.1217C252.408 35.7827 253.021 33.9842 253.021 31.7264C253.021 29.5061 252.408 27.6991 251.182 26.3054C250.625 25.6428 249.928 25.1124 249.141 24.7525C248.354 24.3927 247.497 24.2126 246.632 24.2252C245.766 24.2125 244.909 24.3894 244.119 24.7435C243.329 25.0975 242.626 25.6202 242.059 26.2747C240.817 27.641 240.197 29.4557 240.197 31.7187C240.197 33.9817 240.81 35.7801 242.036 37.114C242.618 37.7471 243.325 38.2525 244.112 38.5983C244.899 38.944 245.749 39.1225 246.609 39.1225C247.469 39.1225 248.319 38.944 249.106 38.5983C249.893 38.2525 250.6 37.7471 251.182 37.114V37.1217Z" fill="#007896"/>
</svg>
