<svg width="298" height="63" viewBox="0 0 298 63" fill="none" xmlns="http://www.w3.org/2000/svg">
<rect width="296.793" height="62.1801" fill="black" fill-opacity="0" transform="translate(0.603424)"/>
<path d="M31.6934 62.1801C48.864 62.1801 62.7835 48.2606 62.7835 31.09C62.7835 13.9195 48.864 0 31.6934 0C14.5229 0 0.603424 13.9195 0.603424 31.09C0.603424 48.2606 14.5229 62.1801 31.6934 62.1801Z" fill="url(#paint0_linear)"/>
<rect width="61.908" height="53.6886" fill="black" fill-opacity="0" transform="translate(0.807449 4.56628)"/>
<path opacity="0.4" d="M59.8396 31.3523L50.1046 55.1847L44.9553 43.0208L49.6479 31.5466H47.1122L43.2842 41.0873L39.4951 31.5466H36.9982L41.6908 43.0208L36.5804 55.1847L26.8065 31.3523L21.9001 19.7907L26.9522 7.62671L36.6873 31.4592H39.5631L28.1667 4.56628H25.8155L20.1707 17.7601L14.4871 4.56628H12.1747L0.807449 31.4592H3.65413L13.4281 7.62671L18.5385 19.7907L13.8458 31.2746H16.3427L20.1318 21.7241L23.9598 31.3523L35.3271 58.2549H37.6394L43.3231 44.9542L48.9678 58.2549H51.319L62.7155 31.3523H59.8396Z" fill="white"/>
<path d="M33.9669 43.2345C33.2219 43.4101 32.4589 43.4981 31.6935 43.4969C26.2721 43.4969 21.6572 39.3677 21.3269 33.2371C21.4056 32.0666 21.591 30.9056 21.8807 29.7687L13.4669 26.2322C12.5893 28.6286 12.142 31.1612 12.1456 33.7132C12.1456 44.2255 21.152 52.7461 31.6643 52.7461C34.0858 52.738 36.4834 52.2664 38.7276 51.3568L33.9669 43.2345Z" fill="url(#paint1_linear)"/>
<path d="M31.6935 13.6018C28.961 13.5979 26.2599 14.1845 23.7752 15.3215L28.497 23.3466C29.5255 22.9924 30.6057 22.8118 31.6935 22.8122C36.493 22.8122 41.584 26.8345 42.0698 31.7895L28.4193 31.8478L49.7063 40.9028C50.7691 38.3444 51.2726 35.5883 51.183 32.8193C51.183 22.3459 42.2058 13.6018 31.6935 13.6018Z" fill="url(#paint2_linear)"/>
<path d="M33.9669 41.1553C33.2219 41.3309 32.4589 41.4189 31.6935 41.4176C26.2721 41.4176 21.6572 37.2885 21.3269 31.1579C21.4056 29.9873 21.591 28.8264 21.8807 27.6894L13.4669 24.1141C12.5893 26.5105 12.142 29.0431 12.1456 31.5951C12.1456 42.1074 21.152 50.6281 31.6643 50.6281C34.0833 50.6322 36.4808 50.1739 38.7276 49.2776L33.9669 41.1553ZM31.6935 11.5518C28.961 11.5479 26.2599 12.1345 23.7752 13.2714L28.497 21.2966C29.5255 20.9423 30.6057 20.7617 31.6935 20.7622C36.493 20.7622 41.584 24.7845 42.0698 29.7394L28.4193 29.7977L49.7062 38.8624C50.7691 36.304 51.2726 33.548 51.183 30.779C51.183 20.2278 42.2058 11.5518 31.6935 11.5518Z" fill="white"/>
<path d="M100.908 40.3782V26.4363L95.4766 36.8223H93.2323L87.8012 26.4363V40.3782H83.711V19.3147H88.1024L94.3302 31.3038L100.616 19.3147H104.978V40.3782H100.908ZM109.652 43.3998C109.97 43.495 110.295 43.5696 110.623 43.6232C110.887 43.6689 111.153 43.6949 111.42 43.7009C111.664 43.7038 111.906 43.6541 112.129 43.5552C112.368 43.4382 112.573 43.2607 112.722 43.0403C112.938 42.7216 113.117 42.3793 113.256 42.0201C113.431 41.5862 113.619 41.0421 113.82 40.3879L107.679 24.8429H111.77L115.957 36.9194L119.698 24.8137H123.438L116.909 43.4483C116.547 44.515 115.869 45.4467 114.966 46.1201C113.991 46.8363 112.804 47.2057 111.595 47.1694C111.269 47.168 110.945 47.142 110.623 47.0917C110.277 47.0366 109.935 46.9521 109.603 46.8391V43.3998H109.652ZM140.907 36.7834V40.3685H126.285V19.3147H140.645V22.8998H130.375V27.9713H139.246V31.2941H130.375V36.7834H140.907ZM152.925 39.5718C152.292 39.8458 151.643 40.0826 150.982 40.281C150.195 40.5217 149.376 40.6428 148.553 40.6405C148.028 40.645 147.505 40.5763 146.999 40.4365C146.532 40.3061 146.098 40.0775 145.726 39.7661C145.348 39.443 145.049 39.0375 144.851 38.5808C144.617 38.0214 144.505 37.4187 144.521 36.8126V27.8839H142.471V24.8332H144.521V19.7908H148.514V24.8332H151.779V27.8839H148.514V35.4815C148.49 35.6972 148.516 35.9154 148.59 36.1194C148.665 36.3233 148.785 36.5073 148.942 36.6571C149.242 36.8881 149.613 37.0082 149.991 36.9972C150.404 36.9984 150.815 36.9294 151.205 36.7931C151.601 36.6571 151.924 36.5373 152.177 36.4336L152.925 39.5718ZM169.743 40.3782H165.769V31.6341C165.843 30.6807 165.604 29.7291 165.089 28.9235C164.86 28.632 164.563 28.4002 164.225 28.248C163.886 28.0957 163.516 28.0275 163.146 28.0491C162.759 28.0543 162.376 28.1335 162.019 28.2822C161.612 28.4483 161.232 28.6742 160.892 28.9526C160.527 29.2511 160.201 29.5938 159.92 29.9727C159.626 30.3637 159.406 30.8049 159.269 31.2746V40.349H155.315V18.722H159.289V27.709C159.833 26.7291 160.641 25.9212 161.621 25.3773C162.614 24.83 163.732 24.5489 164.866 24.5611C165.715 24.5261 166.56 24.703 167.324 25.0761C167.933 25.3963 168.446 25.8724 168.81 26.4557C169.174 27.0525 169.424 27.7112 169.549 28.3988C169.687 29.1422 169.755 29.8968 169.753 30.6528V40.3685L169.743 40.3782ZM180.722 40.6697C179.563 40.6851 178.413 40.4671 177.341 40.0284C176.382 39.6383 175.513 39.0572 174.787 38.3206C174.06 37.584 173.491 36.7073 173.114 35.7438C172.726 34.7704 172.528 33.7315 172.531 32.6834C172.524 31.6148 172.715 30.5541 173.095 29.555C173.466 28.5942 174.028 27.7184 174.746 26.9803C175.481 26.2403 176.356 25.6554 177.321 25.2607C178.408 24.8128 179.575 24.5913 180.751 24.6097C181.917 24.5892 183.075 24.8108 184.151 25.2607C185.111 25.6675 185.98 26.2621 186.706 27.0095C187.409 27.743 187.955 28.6126 188.309 29.5647C188.673 30.5305 188.857 31.5544 188.854 32.5863V33.3246C188.847 33.5243 188.821 33.7228 188.776 33.9173H176.748C176.795 34.4843 176.946 35.0376 177.195 35.5495C177.654 36.4522 178.439 37.1468 179.391 37.4926C179.866 37.6694 180.37 37.7583 180.877 37.755C181.663 37.7561 182.436 37.5554 183.121 37.172C183.765 36.8487 184.274 36.3085 184.559 35.6467L187.969 36.6182C187.362 37.8378 186.409 38.8515 185.23 39.5329C183.862 40.3234 182.301 40.717 180.722 40.6697ZM184.754 31.2941C184.707 30.2339 184.255 29.2323 183.491 28.496C182.742 27.8043 181.76 27.4201 180.741 27.4201C179.722 27.4201 178.74 27.8043 177.991 28.496C177.627 28.8433 177.331 29.2551 177.117 29.7104C176.885 30.2049 176.75 30.7391 176.719 31.2844H184.792L184.754 31.2941ZM200.833 28.2725C199.717 28.2728 198.614 28.5113 197.598 28.972C196.695 29.3695 195.967 30.0805 195.548 30.9735V40.3782H191.574V24.8332H195.227V28.1754C195.491 27.658 195.817 27.1751 196.199 26.7374C196.561 26.3217 196.969 25.947 197.413 25.6201C197.819 25.3193 198.263 25.0742 198.734 24.8915C199.146 24.7297 199.584 24.6441 200.027 24.6389H200.512C200.616 24.6289 200.72 24.6289 200.823 24.6389V28.2725H200.833ZM211.005 19.373H214.775L217.145 26.3488L219.516 19.373H223.325L219.73 28.9526L222.353 35.6855L228.318 19.305H232.768L224.199 40.3685H220.799L217.145 31.5273L213.492 40.3685H210.053L201.542 19.305H205.934L211.928 35.6855L214.581 28.9526L211.005 19.373ZM237.645 40.6697C236.926 40.6762 236.212 40.5511 235.537 40.3005C234.911 40.0689 234.336 39.7156 233.847 39.2609C233.375 38.822 232.995 38.2935 232.729 37.7064C232.46 37.0943 232.324 36.4319 232.331 35.7633C232.324 35.0568 232.491 34.3596 232.817 33.7327C233.145 33.1088 233.61 32.5674 234.177 32.1491C234.813 31.6759 235.526 31.3175 236.285 31.09C237.153 30.8354 238.053 30.711 238.957 30.7209C239.638 30.719 240.317 30.7775 240.988 30.8957C241.594 30.9981 242.187 31.1675 242.756 31.4009V30.5265C242.784 30.0923 242.72 29.657 242.57 29.2487C242.419 28.8404 242.185 28.4682 241.881 28.1559C241.156 27.5558 240.226 27.2598 239.287 27.3301C238.457 27.3313 237.635 27.4827 236.858 27.777C235.999 28.1103 235.183 28.5475 234.43 29.0789L233.215 26.5528C235.128 25.271 237.383 24.594 239.686 24.6097C241.556 24.4903 243.405 25.0684 244.874 26.2322C245.513 26.8417 246.01 27.5838 246.331 28.4064C246.651 29.229 246.787 30.1119 246.73 30.9929V35.8507C246.701 36.1653 246.78 36.4804 246.953 36.7445C247.047 36.8429 247.16 36.9205 247.285 36.9724C247.411 37.0243 247.546 37.0492 247.682 37.0457V40.4268C247.107 40.5525 246.521 40.6209 245.933 40.6308C245.312 40.6716 244.696 40.4928 244.194 40.1256C243.788 39.789 243.518 39.3157 243.436 38.7945L243.349 37.891C242.686 38.7771 241.819 39.4903 240.822 39.9701C239.83 40.4414 238.744 40.6806 237.645 40.6697ZM238.772 37.755C239.437 37.761 240.097 37.6389 240.716 37.3955C241.259 37.194 241.743 36.8601 242.124 36.4239C242.314 36.3011 242.473 36.1348 242.586 35.9389C242.699 35.7429 242.764 35.5229 242.775 35.2969V33.5481C242.273 33.3633 241.756 33.2203 241.231 33.1206C240.703 33.0139 240.166 32.9586 239.627 32.9554C238.733 32.9164 237.849 33.1612 237.101 33.655C236.803 33.8437 236.558 34.1048 236.388 34.414C236.218 34.7232 236.129 35.0704 236.13 35.4232C236.122 35.7432 236.188 36.0606 236.321 36.3517C236.454 36.6428 236.651 36.9001 236.897 37.104C237.42 37.5464 238.088 37.7814 238.772 37.7647V37.755ZM250.703 18.722H254.677V35.3941C254.647 35.8742 254.796 36.3484 255.095 36.7251C255.245 36.887 255.429 37.0137 255.634 37.096C255.839 37.1783 256.06 37.2142 256.28 37.2012C256.546 37.1978 256.811 37.1585 257.067 37.0846C257.347 37.0067 257.62 36.906 257.883 36.7834L258.417 39.8341C257.824 40.1105 257.197 40.3096 256.552 40.4268C255.912 40.5567 255.262 40.625 254.609 40.6308C254.083 40.6699 253.555 40.6041 253.054 40.4373C252.554 40.2705 252.092 40.0061 251.694 39.6592C251.338 39.282 251.064 38.8353 250.888 38.3472C250.713 37.859 250.64 37.3399 250.674 36.8223V18.722H250.703ZM260.399 18.722H264.373V35.3941C264.343 35.8742 264.492 36.3484 264.791 36.7251C264.941 36.887 265.125 37.0137 265.33 37.096C265.535 37.1783 265.756 37.2142 265.976 37.2012C266.243 37.1978 266.507 37.1585 266.763 37.0846C267.043 37.0067 267.316 36.906 267.579 36.7834L268.114 39.8341C267.52 40.1105 266.893 40.3096 266.248 40.4268C265.609 40.5567 264.958 40.625 264.305 40.6308C263.779 40.6699 263.251 40.6041 262.75 40.4373C262.25 40.2705 261.788 40.0061 261.39 39.6592C261.034 39.282 260.76 38.8353 260.584 38.3472C260.409 37.859 260.336 37.3399 260.37 36.8223V18.722H260.399ZM277.344 40.6697C276.185 40.6851 275.035 40.4671 273.962 40.0284C273.004 39.6383 272.135 39.0572 271.409 38.3206C270.682 37.584 270.113 36.7073 269.736 35.7438C269.348 34.7704 269.15 33.7315 269.153 32.6834C269.146 31.6148 269.337 30.5541 269.717 29.555C270.081 28.5923 270.636 27.7133 271.349 26.9706C272.09 26.2319 272.972 25.6503 273.943 25.2607C275.03 24.8128 276.197 24.5913 277.373 24.6097C278.539 24.5892 279.697 24.8108 280.773 25.2607C281.733 25.6675 282.602 26.2621 283.328 27.0095C284.031 27.743 284.577 28.6126 284.931 29.5647C285.3 30.5165 285.494 31.5268 285.505 32.5474V33.2858C285.498 33.4854 285.472 33.6839 285.427 33.8784H273.37C273.417 34.4454 273.568 34.9988 273.817 35.5107C274.276 36.4134 275.061 37.1079 276.013 37.4538C276.488 37.6305 276.992 37.7194 277.499 37.7161C278.285 37.7173 279.057 37.5165 279.743 37.1332C280.387 36.8098 280.896 36.2697 281.181 35.6078L284.591 36.5794C283.984 37.7989 283.031 38.8126 281.852 39.4941C280.488 40.2981 278.926 40.7052 277.344 40.6697ZM281.376 31.2941C281.324 30.2264 280.861 29.2202 280.083 28.4863C279.335 27.7946 278.353 27.4104 277.334 27.4104C276.315 27.4104 275.333 27.7946 274.584 28.4863C274.22 28.8336 273.924 29.2453 273.71 29.7007C273.478 30.1952 273.343 30.7294 273.312 31.2746H281.385L281.376 31.2941ZM297.397 39.5718C296.763 39.8458 296.114 40.0826 295.453 40.281C294.666 40.5217 293.848 40.6428 293.025 40.6405C292.499 40.645 291.976 40.5763 291.47 40.4365C291.003 40.3061 290.569 40.0775 290.197 39.7661C289.819 39.443 289.52 39.0375 289.323 38.5808C289.089 38.0214 288.976 37.4187 288.993 36.8126V27.8839H286.943V24.8332H288.993V19.7908H292.966V24.8332H296.192V27.8839H292.927V35.4815C292.903 35.6972 292.929 35.9154 293.004 36.1194C293.078 36.3233 293.198 36.5073 293.355 36.6571C293.655 36.8881 294.026 37.0082 294.404 36.9972C294.818 36.9984 295.228 36.9294 295.619 36.7931C296.014 36.6571 296.338 36.5373 296.59 36.4336L297.397 39.5718Z" fill="#333333"/>
<defs>
<linearGradient id="paint0_linear" x1="51.8923" y1="1.36018" x2="-4.67216" y2="84.6037" gradientUnits="userSpaceOnUse">
<stop stop-color="#1ABC9C"/>
<stop offset="1" stop-color="#1A5DAF"/>
</linearGradient>
<linearGradient id="paint1_linear" x1="988.237" y1="115.319" x2="750.724" y2="1705.54" gradientUnits="userSpaceOnUse">
<stop stop-color="#1ABC9C"/>
<stop offset="1" stop-color="#1A5DAF"/>
</linearGradient>
<linearGradient id="paint2_linear" x1="1293.78" y1="144.646" x2="1049.34" y2="1782.19" gradientUnits="userSpaceOnUse">
<stop stop-color="#1ABC9C"/>
<stop offset="1" stop-color="#1A5DAF"/>
</linearGradient>
</defs>
</svg>
